<?xml version="1.0" encoding="utf-8"?>
<!-- Generator: Adobe Illustrator 23.0.2, SVG Export Plug-In . SVG Version: 6.00 Build 0)  -->
<svg version="1.1" id="Layer_1" xmlns="http://www.w3.org/2000/svg" xmlns:xlink="http://www.w3.org/1999/xlink" x="0px" y="0px"
	 viewBox="0 0 9.03 9.03" style="enable-background:new 0 0 9.03 9.03;" xml:space="preserve">
<style type="text/css">
	.st0{stroke:#000000;stroke-miterlimit:10;}
</style>
<path class="st0" d="M8.32,8.32L8.32,8.32c-0.28,0.28-0.72,0.28-1,0L0.71,1.7c-0.28-0.28-0.28-0.72,0-1l0,0c0.28-0.28,0.72-0.28,1,0
	l6.62,6.62C8.6,7.6,8.6,8.05,8.32,8.32z"/>
<path class="st0" d="M8.32,0.71L8.32,0.71c0.28,0.28,0.28,0.72,0,1L1.7,8.32c-0.28,0.28-0.72,0.28-1,0l0,0c-0.28-0.28-0.28-0.72,0-1
	l6.62-6.62C7.6,0.43,8.05,0.43,8.32,0.71z"/>
</svg>
