<?xml version="1.0" encoding="utf-8"?>
<!-- Generator: Adobe Illustrator 23.0.2, SVG Export Plug-In . SVG Version: 6.00 Build 0)  -->
<svg version="1.1" id="Layer_1" xmlns="http://www.w3.org/2000/svg" xmlns:xlink="http://www.w3.org/1999/xlink" x="0px" y="0px"
	 viewBox="0 0 22 18" style="enable-background:new 0 0 22 18;" xml:space="preserve">
<style type="text/css">
	.st0{fill:none;stroke:#8e98b3;stroke-width:2;stroke-linejoin:round;}
</style>
<path class="st0" d="M3,1h16c1.1,0,2,0.9,2,2v12c0,1.1-0.9,2-2,2H3c-1.1,0-2-0.9-2-2V3C1,1.9,1.9,1,3,1z"/>
<line class="st0" x1="17" y1="4" x2="17" y2="6"/>
<line class="st0" x1="13" y1="4" x2="13" y2="6"/>
<line class="st0" x1="9" y1="4" x2="9" y2="6"/>
<line class="st0" x1="5" y1="4" x2="5" y2="6"/>
<line class="st0" x1="17" y1="8" x2="17" y2="10"/>
<line class="st0" x1="13" y1="8" x2="13" y2="10"/>
<line class="st0" x1="9" y1="8" x2="9" y2="10"/>
<line class="st0" x1="5" y1="8" x2="5" y2="10"/>
<line class="st0" x1="6" y1="13" x2="16" y2="13"/>
</svg>
