<?xml version="1.0" encoding="utf-8"?>
<!-- Generator: Adobe Illustrator 23.0.2, SVG Export Plug-In . SVG Version: 6.00 Build 0)  -->
<svg version="1.1" id="Layer_1" xmlns="http://www.w3.org/2000/svg" xmlns:xlink="http://www.w3.org/1999/xlink" x="0px" y="0px"
	 viewBox="0 0 19.05 22.95" style="enable-background:new 0 0 19.05 22.95;" xml:space="preserve">
<style type="text/css">
	.st0{stroke:#8e98b3;fill:#8e98b3;stroke-width:0.25;stroke-miterlimit:10;}
</style>
<g>
	<path class="st0" d="M13.67,4.7c-2.28-1.83-5.65-1.83-7.94,0C2.72,7.11,2.59,11.4,5.3,14.1c0.05,0.05,0.09,0.08,0.14,0.11
		c0.05,0.03,1.25,0.81,1.25,3.65c0,0.39,0.32,0.7,0.71,0.7c1.17,0,3.45,0,4.62,0c0.39,0,0.71-0.31,0.71-0.7
		c0-2.85,1.19-3.62,1.23-3.64c0.06-0.03,0.11-0.07,0.16-0.12C16.81,11.4,16.68,7.11,13.67,4.7z M13.15,13.05
		c-0.4,0.27-1.65,1.32-1.83,4.1h-0.91v-5.67h1.42c0.39,0,0.71-0.32,0.71-0.71v0c0-0.39-0.32-0.71-0.71-0.71H7.57
		c-0.39,0-0.71,0.32-0.71,0.71v0c0,0.39,0.32,0.71,0.71,0.71h1.42v5.67H8.08c-0.19-2.78-1.44-3.83-1.83-4.1
		C4.33,11.07,4.3,8.07,6.2,6.18c1.89-1.88,5.11-1.88,7,0C15.1,8.07,15.07,11.07,13.15,13.05z"/>
	<path class="st0" d="M8.64,22.82h2.13c0.39,0,0.71-0.32,0.71-0.71v0c0-0.39-0.32-0.71-0.71-0.71H8.64c-0.39,0-0.71,0.32-0.71,0.71
		v0C7.93,22.51,8.25,22.82,8.64,22.82z"/>
	<path class="st0" d="M7.93,20.7h3.55c0.39,0,0.71-0.32,0.71-0.71v0c0-0.39-0.32-0.71-0.71-0.71H7.93c-0.39,0-0.71,0.32-0.71,0.71v0
		C7.22,20.38,7.54,20.7,7.93,20.7z"/>
	<path class="st0" d="M9.52,0.12L9.52,0.12c-0.39,0-0.71,0.32-0.71,0.71V1.9c0,0.39,0.32,0.71,0.71,0.71h0
		c0.39,0,0.71-0.32,0.71-0.71V0.83C10.23,0.44,9.92,0.12,9.52,0.12z"/>
	<path class="st0" d="M1.9,8.81H0.83c-0.39,0-0.71,0.32-0.71,0.71v0c0,0.39,0.32,0.71,0.71,0.71H1.9c0.39,0,0.71-0.32,0.71-0.71v0
		C2.61,9.13,2.29,8.81,1.9,8.81z"/>
	<path class="st0" d="M16.79,9.52L16.79,9.52c0,0.39,0.32,0.71,0.71,0.71h0.71c0.39,0,0.71-0.32,0.71-0.71v0
		c0-0.39-0.32-0.71-0.71-0.71H17.5C17.11,8.81,16.79,9.13,16.79,9.52z"/>
	<path class="st0" d="M2.88,16.17L2.88,16.17c0.28,0.28,0.73,0.28,1,0l0.75-0.75c0.28-0.28,0.28-0.73,0-1l0,0
		c-0.28-0.28-0.73-0.28-1,0l-0.75,0.75C2.6,15.44,2.6,15.89,2.88,16.17z"/>
	<path class="st0" d="M14.66,4.38L14.66,4.38c0.28,0.28,0.73,0.28,1,0l0.5-0.5c0.28-0.28,0.28-0.73,0-1v0c-0.28-0.28-0.73-0.28-1,0
		l-0.5,0.5C14.39,3.66,14.39,4.11,14.66,4.38z"/>
	<path class="st0" d="M4.63,3.63L3.88,2.88c-0.28-0.28-0.73-0.28-1,0l0,0c-0.28,0.28-0.28,0.73,0,1l0.75,0.75
		c0.28,0.28,0.73,0.28,1,0l0,0C4.91,4.36,4.91,3.91,4.63,3.63z"/>
	<path class="st0" d="M14.66,15.67l0.5,0.5c0.28,0.28,0.73,0.28,1,0l0,0c0.28-0.28,0.28-0.73,0-1l-0.5-0.5c-0.28-0.28-0.73-0.28-1,0
		l0,0C14.39,14.94,14.39,15.39,14.66,15.67z"/>
</g>
</svg>
