<?xml version="1.0" encoding="utf-8"?>
<!-- Generator: Adobe Illustrator 23.0.2, SVG Export Plug-In . SVG Version: 6.00 Build 0)  -->
<svg version="1.1" id="Layer_1" xmlns="http://www.w3.org/2000/svg" xmlns:xlink="http://www.w3.org/1999/xlink" x="0px" y="0px"
	 viewBox="0 0 41.44 7.94" style="enable-background:new 0 0 41.44 7.94;" xml:space="preserve">
<path fill="#556490" d="M33.5,4.56V3.37C33.5,1.51,35.01,0,36.87,0l1.19,0c1.86,0,3.37,1.51,3.37,3.37v1.19c0,1.86-1.51,3.37-3.37,3.37h-1.19
	C35.01,7.94,33.5,6.43,33.5,4.56z"/>
<path fill="#556490" d="M16.75,4.56V3.37c0-1.86,1.51-3.37,3.37-3.37l1.19,0c1.86,0,3.37,1.51,3.37,3.37v1.19c0,1.86-1.51,3.37-3.37,3.37h-1.19
	C18.26,7.94,16.75,6.43,16.75,4.56z"/>
<path fill="#556490" d="M0,4.56l0-1.19C0,1.51,1.51,0,3.37,0l1.19,0c1.86,0,3.37,1.51,3.37,3.37v1.19c0,1.86-1.51,3.37-3.37,3.37H3.37
	C1.51,7.94,0,6.43,0,4.56z"/>
</svg>
