<?xml version="1.0" encoding="utf-8"?>
<!-- Generator: Adobe Illustrator 23.0.2, SVG Export Plug-In . SVG Version: 6.00 Build 0)  -->
<svg version="1.1" id="Isolation_Mode" xmlns="http://www.w3.org/2000/svg" xmlns:xlink="http://www.w3.org/1999/xlink" x="0px"
	 y="0px" viewBox="0 0 34.21 29.73" style="enable-background:new 0 0 34.21 29.73;" xml:space="preserve">
<style type="text/css">
	.st0{fill:#15307F;}
	.st1{fill:#1157B6;}
	.st2{fill:#A9BBE0;}
	.st3{fill:#3A63AE;}
	.st4{fill:#CFDCF2;}
</style>
<g>
	<path class="st0" d="M29.26,0H3.14C1.42,0,0.02,1.39,0.02,3.11v1.58H0v1.44h0.02v20.48c0,1.72,1.39,3.11,3.11,3.11h17.38h8.75
		c1.72,0,3.11-1.39,3.11-3.11V5.51V3.11C32.37,1.39,30.98,0,29.26,0z"/>
	<path class="st1" d="M31.1,0H4.97C3.25,0,1.86,1.39,1.86,3.11v2.39h32.35V3.11C34.21,1.39,32.82,0,31.1,0z"/>
	<g>
		<path class="st2" d="M14.27,5.51l8.07,24.22h8.75c1.72,0,3.11-1.39,3.11-3.11V5.51H14.27z"/>
		<path class="st3" d="M1.86,5.51v21.11c0,1.72,1.39,3.11,3.11,3.11h18.31L15.2,5.51H1.86z"/>
	</g>
	<rect x="1.84" y="5.41" class="st4" width="32.36" height="1.44"/>
	<polygon class="st3" points="24.05,29.72 16.08,6.03 14.56,6.03 22.53,29.72 	"/>
	<rect x="2.52" y="5.41" class="st4" width="31.67" height="1.44"/>
	<g>
		<path class="st3" d="M30.13,14.62h-4.96v-0.71c0-0.39-0.32-0.71-0.71-0.71c-0.39,0-0.71,0.32-0.71,0.71v0.71h-4.07l-0.01-0.02
			h-1.14c0.19,0.48,0.35,0.95,0.49,1.44h1.11l0-0.01h7.01c-0.33,1.12-1.3,2.97-2.64,4.67c-0.72-0.83-1.31-1.59-1.52-2.1
			c-0.15-0.36-0.56-0.54-0.92-0.39c-0.36,0.15-0.54,0.56-0.39,0.92c0.28,0.69,1.03,1.66,1.89,2.64c-0.38,0.4-0.79,0.77-1.21,1.11
			l0,0c-0.15,0.15-0.35,0.26-0.6,0.31c-0.02,0.01-0.04,0.01-0.06,0.02c0,0-0.01,0-0.01,0c-0.02,0.01-0.03,0.02-0.05,0.02
			c0.17,0.51,0.35,1.01,0.53,1.51c0.12-0.07,0.24-0.14,0.36-0.22c0.08-0.08,0.18-0.15,0.29-0.2l0,0c0.59-0.43,1.15-0.95,1.7-1.52
			c1.36,1.43,2.73,2.7,3,2.95c0.14,0.12,0.31,0.19,0.48,0.19c0.19,0,0.38-0.08,0.52-0.23c0.26-0.29,0.24-0.74-0.04-1
			c-0.66-0.61-1.88-1.77-3.01-2.97c1.61-1.99,2.81-4.27,3.14-5.72h1.52c0.39,0,0.71-0.32,0.71-0.71
			C30.84,14.94,30.52,14.62,30.13,14.62z"/>
		<path class="st4" d="M15.41,19.34l-3.54-9.92c-0.2-0.56-1.13-0.56-1.33,0L7,19.34c-0.13,0.37,0.06,0.77,0.43,0.91
			c0.37,0.13,0.77-0.06,0.91-0.43l0.84-2.36h4.06l0.84,2.36c0.1,0.29,0.38,0.47,0.67,0.47c0.08,0,0.16-0.01,0.24-0.04
			C15.35,20.11,15.54,19.71,15.41,19.34z M9.68,16.04l1.52-4.27l1.52,4.27H9.68z"/>
	</g>
	<g>
		<path class="st0" d="M5.2,4.12h0.41c0.57,0,1.03-0.46,1.03-1.03S6.17,2.06,5.61,2.06H5.2c-0.57,0-1.03,0.46-1.03,1.03
			S4.63,4.12,5.2,4.12z"/>
		<path class="st4" d="M5.74,4.12h0.21c0.57,0,1.03-0.46,1.03-1.03S6.51,2.06,5.95,2.06H5.74c-0.57,0-1.03,0.46-1.03,1.03
			S5.17,4.12,5.74,4.12z"/>
	</g>
	<g>
		<path class="st0" d="M8.55,4.12h0.41c0.57,0,1.03-0.46,1.03-1.03S9.52,2.06,8.95,2.06H8.55c-0.57,0-1.03,0.46-1.03,1.03
			S7.98,4.12,8.55,4.12z"/>
		<path class="st4" d="M9.08,4.12h0.21c0.57,0,1.03-0.46,1.03-1.03S9.86,2.06,9.29,2.06H9.08c-0.57,0-1.03,0.46-1.03,1.03
			S8.52,4.12,9.08,4.12z"/>
	</g>
	<g>
		<path class="st0" d="M11.89,4.12h0.41c0.57,0,1.03-0.46,1.03-1.03s-0.46-1.03-1.03-1.03h-0.41c-0.57,0-1.03,0.46-1.03,1.03
			S11.32,4.12,11.89,4.12z"/>
		<path class="st4" d="M12.43,4.12h0.21c0.57,0,1.03-0.46,1.03-1.03s-0.46-1.03-1.03-1.03h-0.21c-0.57,0-1.03,0.46-1.03,1.03
			S11.86,4.12,12.43,4.12z"/>
	</g>
</g>
</svg>
