<?xml version="1.0" encoding="utf-8"?>
<!-- Generator: Adobe Illustrator 23.0.2, SVG Export Plug-In . SVG Version: 6.00 Build 0)  -->
<svg version="1.1" id="Layer_1" xmlns="http://www.w3.org/2000/svg" xmlns:xlink="http://www.w3.org/1999/xlink" x="0px" y="0px"
	 viewBox="0 0 31.63 35.25" style="enable-background:new 0 0 31.63 35.25;" xml:space="preserve">
<g>
	<path fill="#556490" d="M6.98,16.71h14.04c0.85,0,1.54-0.69,1.54-1.54s-0.69-1.54-1.54-1.54H6.98c-0.85,0-1.54,0.69-1.54,1.54
		S6.14,16.71,6.98,16.71z"/>
	<path fill="#556490" d="M17.05,20.63c0-0.85-0.69-1.54-1.54-1.54H6.98c-0.85,0-1.54,0.69-1.54,1.54s0.69,1.54,1.54,1.54h8.53
		C16.36,22.17,17.05,21.48,17.05,20.63z"/>
	<path fill="#556490" d="M30.38,19.79c-0.67-0.66-1.5-1.05-2.36-1.18V5.63c0-3.1-2.52-5.63-5.63-5.63H5.63C2.52,0,0,2.53,0,5.63v24
		c0,3.1,2.52,5.63,5.63,5.63h9.56c0.2,0,0.39-0.04,0.57-0.11c0.18,0.07,0.37,0.11,0.57,0.11c0.14,0,0.28-0.02,0.41-0.06l5.5-1.52
		c0.25-0.07,0.49-0.21,0.68-0.39l7.47-7.46c0.8-0.8,1.25-1.88,1.25-3.02S31.19,20.6,30.38,19.79z M19.31,29.17l7.21-7.2
		c0.45-0.45,1.23-0.45,1.68,0c0.46,0.46,0.46,1.22,0,1.68l-7.18,7.17l-2.42,0.67L19.31,29.17z M15.18,32.18H5.63
		c-1.41,0-2.55-1.14-2.55-2.55v-24c0-1.41,1.15-2.55,2.55-2.55h16.76c1.41,0,2.55,1.14,2.55,2.55v13.68
		c-0.21,0.14-0.41,0.3-0.59,0.48l-7.49,7.47c-0.18,0.18-0.31,0.4-0.38,0.64L15.18,32.18z"/>
	<path fill="#556490" d="M6.98,11.26h14.04c0.85,0,1.54-0.69,1.54-1.54s-0.69-1.54-1.54-1.54H6.98c-0.85,0-1.54,0.69-1.54,1.54
		S6.14,11.26,6.98,11.26z"/>
</g>
</svg>
