<?xml version="1.0" encoding="utf-8"?>
<!-- Generator: Adobe Illustrator 23.0.2, SVG Export Plug-In . SVG Version: 6.00 Build 0)  -->
<svg version="1.1" id="Layer_1" xmlns="http://www.w3.org/2000/svg" xmlns:xlink="http://www.w3.org/1999/xlink" x="0px" y="0px"
	 viewBox="0 0 33.25 34.78" style="enable-background:new 0 0 33.25 34.78;" xml:space="preserve">
<style type="text/css">
	.st0{stroke:#000000;stroke-width:0.25;stroke-miterlimit:10;}
</style>
<g>
	<path fill="#556490" class="st0" d="M32.81,17.64c-0.2-0.2-0.48-0.31-0.76-0.31c-0.01,0-0.01,0-0.02,0c0.11-1.45,0.02-2.93-0.28-4.41
		c0-0.11,0-0.21-0.02-0.32c0-0.02-0.01-0.05-0.02-0.07c-0.7-3.02-2.21-5.65-4.26-7.69c-3.77-3.77-9.35-5.58-14.93-4.3
		C3.93,2.52-1.45,11.13,0.54,19.72c0.67,2.92,2.15,5.59,4.27,7.71c0.06,0.06,0.13,0.12,0.2,0.16c0.78,0.76,1.66,1.44,2.62,2.04
		c0.36,0.23,0.73,0.43,1.1,0.63l-1.86,1.86c-0.58,0.58-0.58,1.52,0,2.1c0.58,0.58,1.52,0.58,2.1,0l7.48-7.47l3.63,3.63
		c0.28,0.28,0.65,0.44,1.05,0.44c0.4,0,0.77-0.15,1.05-0.44l6.99-7.01l1.18,1.18c0.22,0.21,0.5,0.33,0.81,0.33l0.02,0
		c0.05,0,0.11,0,0.16,0c0.45-0.08,0.8-0.43,0.88-0.88l0.89-5.42C33.16,18.23,33.05,17.88,32.81,17.64z M21.12,27.23l-3.63-3.63
		c-0.28-0.28-0.65-0.44-1.05-0.44c-0.4,0-0.77,0.15-1.05,0.44l-4.58,4.57c-0.58-0.25-1.14-0.55-1.68-0.88
		c-0.03-0.02-0.07-0.04-0.1-0.06c-0.46-0.28-0.89-0.59-1.3-0.92l0.16-0.16l1.24-1.24c0.49-0.47,0.54-1.23,0.13-1.77
		c-0.21-0.26-0.52-0.42-0.86-0.46c-0.34-0.03-0.67,0.07-0.94,0.28c-0.03,0.03-0.06,0.05-0.09,0.08L5.9,24.51l-0.16-0.2
		c-0.28-0.35-0.54-0.72-0.78-1.1l0.03-0.03c-0.05-0.07-0.09-0.15-0.14-0.23l-0.03,0.03c-0.99-1.62-1.61-3.44-1.83-5.34L2.96,17.4
		l2.17,0c0.34,0,0.66-0.13,0.9-0.38c0.24-0.24,0.37-0.56,0.37-0.9c0-0.71-0.57-1.28-1.28-1.28l-2.15,0l0.03-0.25
		c0.27-2.44,1.22-4.74,2.74-6.67l0.16-0.2l1.47,1.47c0.5,0.5,1.31,0.5,1.81,0C9.2,9.16,9.23,9.12,9.26,9.09
		c0.41-0.52,0.36-1.27-0.11-1.74C9.14,7.35,9.13,7.34,9.13,7.34L7.72,5.92l0.2-0.16C9.84,4.24,12.15,3.28,14.59,3l0.25-0.03l0,2.07
		c0,0.34,0.13,0.66,0.37,0.9c0,0,0,0,0,0c0.24,0.24,0.56,0.37,0.9,0.37c0.7,0,1.28-0.57,1.28-1.28V2.97l0.76,0.1
		c2.77,0.46,5.27,1.75,7.23,3.75l0.06,0.06c0.91,0.89,1.68,1.91,2.29,3.02c0.54,1.01,0.95,2.09,1.21,3.22
		c0.01,0.04,0.02,0.07,0.03,0.11c0.35,1.53,0.43,3.06,0.27,4.55l-2.8,0.46c-0.5,0.08-0.87,0.49-0.9,0.99
		c-0.02,0.31,0.1,0.62,0.32,0.84c0,0,0.01,0.01,0.01,0.01l1.2,1.19L21.12,27.23z"/>
	<path fill="#556490" class="st0" d="M23.36,8.76L23.36,8.76c-0.44-0.37-1.07-0.38-1.52-0.01l-5.15,4.12l-0.1-0.01c-1.81-0.25-3.48,1.03-3.73,2.84
		c-0.12,0.88,0.11,1.75,0.65,2.45c0.54,0.7,1.31,1.16,2.19,1.28c1.81,0.25,3.48-1.03,3.73-2.84c0.02-0.15,0.03-0.3,0.03-0.45
		c0-0.15-0.01-0.3-0.03-0.45l-0.01-0.1l4.12-5.12c0.4-0.49,0.36-1.19-0.09-1.62L23.36,8.76z"/>
</g>
</svg>
