<?xml version="1.0" encoding="utf-8"?>
<!-- Generator: Adobe Illustrator 23.0.2, SVG Export Plug-In . SVG Version: 6.00 Build 0)  -->
<svg version="1.1" id="Layer_1" xmlns="http://www.w3.org/2000/svg" xmlns:xlink="http://www.w3.org/1999/xlink" x="0px" y="0px"
	 viewBox="0 0 28.57 35.29" style="enable-background:new 0 0 28.57 35.29;" xml:space="preserve">
<style type="text/css">
	.st0{fill:#556490;stroke:#556490;stroke-miterlimit:10;}
</style>
<g>
	<g>
		<g>
			<path class="st0" d="M24.68,2.54h-5.35c-0.27-1.17-1.31-2.04-2.56-2.04h-5.12c-1.25,0-2.29,0.87-2.56,2.04H3.87
				C2,2.54,0.49,4.06,0.49,5.92V31.4c0,1.87,1.52,3.38,3.38,3.38h20.8c1.87,0,3.38-1.52,3.38-3.38V5.92
				C28.07,4.06,26.55,2.54,24.68,2.54z M11.04,3.13c0-0.34,0.28-0.62,0.62-0.62h5.12c0.34,0,0.62,0.28,0.62,0.62v1.23
				c0,0.34-0.28,0.62-0.62,0.62h-5.12c-0.34,0-0.62-0.28-0.62-0.62L11.04,3.13L11.04,3.13z M24.68,32.78H3.88
				c-0.76,0-1.38-0.62-1.38-1.38V5.92c0-0.76,0.62-1.38,1.38-1.38h5.16c0.1,1.36,1.23,2.44,2.62,2.44h5.12
				c1.39,0,2.52-1.08,2.62-2.44h5.29c0.76,0,1.38,0.62,1.38,1.38V31.4l0,0C26.06,32.16,25.44,32.78,24.68,32.78z"/>
		</g>
	</g>
	<g>
		<g>
			<path class="st0" d="M22.16,11.53h-6.78c-0.55,0-1,0.45-1,1s0.45,1,1,1h6.78c0.55,0,1-0.45,1-1S22.71,11.53,22.16,11.53z"/>
		</g>
	</g>
	<g>
		<g>
			<path class="st0" d="M11.44,10.08c-0.42-0.36-1.05-0.32-1.42,0.1l-2.24,2.58l-0.83-0.85c-0.39-0.4-1.02-0.4-1.42-0.02
				c-0.4,0.39-0.4,1.02-0.02,1.42l1.59,1.63c0.01,0.01,0.02,0.02,0.03,0.02c0.01,0.01,0.02,0.02,0.03,0.03c0,0,0.01,0,0.01,0.01
				c0.01,0.01,0.02,0.02,0.03,0.03c0.01,0.01,0.03,0.02,0.04,0.03c0.01,0.01,0.02,0.02,0.04,0.02c0.02,0.01,0.03,0.02,0.05,0.03
				c0.01,0.01,0.02,0.01,0.04,0.02s0.03,0.02,0.05,0.02c0.01,0.01,0.02,0.01,0.04,0.02s0.04,0.01,0.05,0.02
				c0.01,0,0.02,0.01,0.03,0.01c0.02,0.01,0.04,0.01,0.06,0.01c0.01,0,0.02,0.01,0.03,0.01c0.02,0,0.04,0.01,0.07,0.01
				c0.01,0,0.02,0,0.03,0c0.03,0,0.06,0,0.09,0l0,0l0,0c0.03,0,0.07,0,0.1-0.01c0.01,0,0.02,0,0.03,0c0.02,0,0.05-0.01,0.07-0.01
				c0.01,0,0.02-0.01,0.03-0.01c0.02-0.01,0.04-0.01,0.06-0.02c0.01,0,0.03-0.01,0.04-0.01c0.02-0.01,0.04-0.01,0.06-0.02
				c0.01-0.01,0.03-0.01,0.04-0.02c0.02-0.01,0.03-0.02,0.05-0.03c0.01-0.01,0.03-0.02,0.04-0.02c0.02-0.01,0.03-0.02,0.05-0.03
				c0.01-0.01,0.03-0.02,0.04-0.03c0.01-0.01,0.03-0.02,0.04-0.03c0.01-0.01,0.03-0.02,0.04-0.03l0.01-0.01
				c0.01-0.01,0.02-0.02,0.03-0.03c0.01-0.01,0.02-0.02,0.02-0.03l2.95-3.4C11.9,11.08,11.86,10.45,11.44,10.08z"/>
		</g>
	</g>
	<g>
		<g>
			<path class="st0" d="M22.16,18.52h-6.78c-0.55,0-1,0.45-1,1s0.45,1,1,1h6.78c0.55,0,1-0.45,1-1
				C23.16,18.97,22.71,18.52,22.16,18.52z"/>
		</g>
	</g>
	<g>
		<g>
			<path class="st0" d="M22.16,25.48h-6.78c-0.55,0-1,0.45-1,1s0.45,1,1,1h6.78c0.55,0,1-0.45,1-1S22.71,25.48,22.16,25.48z"/>
		</g>
	</g>
	<g>
		<g>
			<path class="st0" d="M10.5,18.52H6.42c-0.55,0-1,0.45-1,1s0.45,1,1,1h4.08c0.55,0,1-0.45,1-1C11.5,18.97,11.05,18.52,10.5,18.52z
				"/>
		</g>
	</g>
	<g>
		<g>
			<path class="st0" d="M10.5,25.36H6.41c-0.55,0-1,0.45-1,1s0.45,1,1,1h4.08c0.55,0,1-0.45,1-1C11.5,25.81,11.05,25.36,10.5,25.36z
				"/>
		</g>
	</g>
</g>
</svg>
