<?xml version="1.0" encoding="utf-8"?>
<!-- Generator: Adobe Illustrator 23.0.2, SVG Export Plug-In . SVG Version: 6.00 Build 0)  -->
<svg version="1.1" id="Layer_1" xmlns="http://www.w3.org/2000/svg" xmlns:xlink="http://www.w3.org/1999/xlink" x="0px" y="0px"
	 viewBox="0 0 31.74 35.07" style="enable-background:new 0 0 31.74 35.07;" xml:space="preserve">
<g>
	<path fill="#556490" d="M4.21,25c0.85,0,1.54-0.69,1.54-1.54V22.2h8.57v1.25c0,0.85,0.69,1.54,1.54,1.54s1.54-0.69,1.54-1.54V22.2h8.57v1.25
		c0,0.85,0.69,1.54,1.54,1.54s1.54-0.69,1.54-1.54v-2.47c0-1.03-0.84-1.88-1.88-1.88h-9.78v-2.25c0-0.85-0.69-1.54-1.54-1.54
		s-1.54,0.69-1.54,1.54v2.25H4.54c-1.03,0-1.88,0.84-1.88,1.88v2.47C2.66,24.31,3.36,25,4.21,25z"/>
	<path fill="#556490" d="M6.04,26.65H2.38C1.07,26.65,0,27.72,0,29.03v3.66c0,1.31,1.07,2.38,2.38,2.38h3.66c1.31,0,2.38-1.07,2.38-2.38v-3.66
		C8.42,27.72,7.35,26.65,6.04,26.65z M5.33,30v1.71c0,0.15-0.12,0.26-0.26,0.26H3.35c-0.15,0-0.26-0.12-0.26-0.26V30
		c0-0.15,0.12-0.26,0.26-0.26h1.71C5.21,29.74,5.33,29.86,5.33,30z"/>
	<path fill="#556490" d="M17.7,26.65h-3.66c-1.31,0-2.38,1.07-2.38,2.38v3.66c0,1.31,1.07,2.38,2.38,2.38h3.66c1.31,0,2.38-1.07,2.38-2.38v-3.66
		C20.08,27.72,19.01,26.65,17.7,26.65z M16.99,30v1.71c0,0.15-0.12,0.26-0.26,0.26h-1.71c-0.15,0-0.26-0.12-0.26-0.26V30
		c0-0.15,0.12-0.26,0.26-0.26h1.71C16.87,29.74,16.99,29.86,16.99,30z"/>
	<path fill="#556490" d="M29.36,26.65H25.7c-1.31,0-2.38,1.07-2.38,2.38v3.66c0,1.31,1.07,2.38,2.38,2.38h3.66c1.31,0,2.38-1.07,2.38-2.38v-3.66
		C31.74,27.72,30.67,26.65,29.36,26.65z M28.65,30v1.71c0,0.15-0.12,0.26-0.26,0.26h-1.71c-0.15,0-0.26-0.12-0.26-0.26V30
		c0-0.15,0.12-0.26,0.26-0.26h1.71C28.53,29.74,28.65,29.86,28.65,30z"/>
	<path fill="#556490" d="M8.98,14.66h14.08c1.5,0,2.71-1.22,2.71-2.71V2.71c0-1.5-1.22-2.71-2.71-2.71H8.98c-1.5,0-2.71,1.22-2.71,2.71v9.24
		C6.27,13.44,7.49,14.66,8.98,14.66z M9.36,11.31V3.35c0-0.15,0.12-0.26,0.26-0.26h12.79c0.15,0,0.26,0.12,0.26,0.26v7.95
		c0,0.15-0.12,0.26-0.26,0.26H9.63C9.48,11.57,9.36,11.45,9.36,11.31z"/>
</g>
</svg>
